<?xml version="1.0" encoding="UTF-8"?> <svg xmlns="http://www.w3.org/2000/svg" width="1372" height="1249" viewBox="0 0 1372 1249" fill="none"> <g filter="url(#filter0_f_918_142)"> <path fill-rule="evenodd" clip-rule="evenodd" d="M994.802 395.578C1036.46 438.613 1078.99 478.565 1103.14 533.373C1126.87 587.228 1127.26 644.663 1130.47 703.428C1134.9 784.609 1176.87 878.374 1125.4 941.31C1074.47 1003.58 744.985 980.113 665.286 991.014C584.024 1002.13 489.466 1057.13 425.695 1005.55C359.878 952.323 417.801 838.356 381.808 761.742C345.539 684.541 214.633 655.573 221.326 570.541C227.804 488.251 350.305 476.439 408.846 418.246C470.648 356.812 484.88 227.647 571.845 222.108C660.325 216.474 933.139 331.874 994.802 395.578Z" fill="url(#paint0_linear_918_142)"></path> </g> <defs> <filter id="filter0_f_918_142" x="0.078125" y="0.910156" width="1371.71" height="1247.37" filterUnits="userSpaceOnUse" color-interpolation-filters="sRGB"> <feFlood flood-opacity="0" result="BackgroundImageFix"></feFlood> <feBlend mode="normal" in="SourceGraphic" in2="BackgroundImageFix" result="shape"></feBlend> <feGaussianBlur stdDeviation="110.5" result="effect1_foregroundBlur_918_142"></feGaussianBlur> </filter> <linearGradient id="paint0_linear_918_142" x1="563.057" y1="200.078" x2="664.024" y2="1041.17" gradientUnits="userSpaceOnUse"> <stop stop-color="#04B066"></stop> <stop offset="1" stop-color="#6D75FE"></stop> </linearGradient> </defs> </svg> 